<?xml version="1.0" encoding="UTF-8" standalone="no"?><!DOCTYPE svg PUBLIC "-//W3C//DTD SVG 1.1//EN" "http://www.w3.org/Graphics/SVG/1.1/DTD/svg11.dtd"><svg width="100%" height="100%" viewBox="0 0 3000 3000" version="1.1" xmlns="http://www.w3.org/2000/svg" xmlns:xlink="http://www.w3.org/1999/xlink" xml:space="preserve" xmlns:serif="http://www.serif.com/" style="fill-rule:evenodd;clip-rule:evenodd;stroke-linecap:round;stroke-linejoin:round;stroke-miterlimit:1.5;"><circle cx="1500" cy="1500" r="1500" style="fill:#ebf1f8;"/><path d="M1500,0c827.873,0 1500,672.127 1500,1500c0,121.594 -148.802,30.791 -272.665,28.073c-228.318,-5.01 -527.561,-41.515 -681.65,-80.741c-10.973,-2.794 -9.657,40.612 -30.634,-8.412c-112.975,-264.035 -48.871,59.155 -515.051,59.155c-693.931,-0 119.509,51.563 -1191.38,29.938c-66.456,-1.096 -308.617,105.928 -308.617,-28.013c-0,-827.873 672.127,-1500 1500,-1500Z" style="fill:#E41818;"/><clipPath id="_clip1"><circle cx="1500" cy="1500" r="1500"/></clipPath><g clip-path="url(#_clip1)"><rect x="-154.044" y="1295.89" width="3308.09" height="408.216" style="fill:#000116;"/></g><circle cx="1500" cy="1500" r="467.907" style="fill:#ebf1f8;stroke:#000116;stroke-width:202.81px;"/></svg>